<?xml version="1.0" encoding="utf-8"?>
<!-- Generator: Adobe Illustrator 24.1.3, SVG Export Plug-In . SVG Version: 6.00 Build 0)  -->
<svg version="1.1" id="Layer_1" xmlns="http://www.w3.org/2000/svg" xmlns:xlink="http://www.w3.org/1999/xlink" x="0px" y="0px"
	 viewBox="0 0 14 14" style="enable-background:new 0 0 14 14;" xml:space="preserve">
<style type="text/css">
	.st0{fill:#667085;}
</style>
<g>
	<path class="st0" d="M7,13.7c-0.2,0-0.4-0.1-0.6-0.2c-0.3-0.3-0.3-0.9,0-1.2l4.4-4.4H1.2C0.7,7.8,0.3,7.5,0.3,7s0.4-0.8,0.8-0.8
		h9.7L6.4,1.8c-0.3-0.3-0.3-0.9,0-1.2s0.9-0.3,1.2,0l5.8,5.8l0,0c0,0,0,0,0,0c0,0,0,0,0,0c0,0,0,0,0,0v0c0,0,0,0,0,0l0,0
		c0.1,0.1,0.1,0.2,0.2,0.3c0,0.1,0.1,0.2,0.1,0.3s0,0.2-0.1,0.3c0,0,0,0,0,0c0,0.1-0.1,0.2-0.2,0.3l0,0c0,0,0,0,0,0v0c0,0,0,0,0,0
		c0,0,0,0,0,0c0,0,0,0,0,0l0,0l0,0c0,0,0,0,0,0l0,0l-5.8,5.8C7.4,13.6,7.2,13.7,7,13.7z"/>
</g>
</svg>
