<?xml version="1.0" encoding="utf-8"?>
<!-- Generator: Adobe Illustrator 24.1.3, SVG Export Plug-In . SVG Version: 6.00 Build 0)  -->
<svg version="1.1" id="Layer_1" xmlns="http://www.w3.org/2000/svg" xmlns:xlink="http://www.w3.org/1999/xlink" x="0px" y="0px"
	 viewBox="0 0 24 24" style="enable-background:new 0 0 24 24;" xml:space="preserve">
<style type="text/css">
	.st0{fill:#637381;}
</style>
<g>
	<path class="st0" d="M15.2,16c-0.2,0-0.4-0.1-0.5-0.2l-3.2-3.2c-0.1-0.1-0.2-0.3-0.2-0.5V7.1c0-0.4,0.3-0.8,0.8-0.8
		s0.8,0.3,0.8,0.8v4.6l3,3c0.3,0.3,0.3,0.8,0,1.1C15.6,15.9,15.4,16,15.2,16z"/>
</g>
<g>
	<path class="st0" d="M12,22.8C6.1,22.8,1.3,17.9,1.3,12S6.1,1.3,12,1.3S22.8,6.1,22.8,12S17.9,22.8,12,22.8z M12,2.8
		c-5.1,0-9.3,4.1-9.3,9.3s4.1,9.3,9.3,9.3s9.3-4.1,9.3-9.3S17.1,2.8,12,2.8z"/>
</g>
</svg>
