<svg width="16" height="16" viewBox="0 0 16 16" fill="none" xmlns="http://www.w3.org/2000/svg">
<path d="M14.6688 0.5H1.33125C1.11129 0.501635 0.900811 0.589738 0.745275 0.745275C0.589738 0.900811 0.501635 1.11129 0.5 1.33125V14.6688C0.501635 14.8887 0.589738 15.0992 0.745275 15.2547C0.900811 15.4103 1.11129 15.4984 1.33125 15.5H8.5125V9.7H6.5625V7.43125H8.5125V5.7625C8.5125 3.825 9.69375 2.76875 11.4312 2.76875C12.0125 2.76875 12.5938 2.76875 13.175 2.85625V4.875H11.9813C11.0375 4.875 10.8562 5.325 10.8562 5.98125V7.425H13.1063L12.8125 9.69375H10.8562V15.5H14.6688C14.8887 15.4984 15.0992 15.4103 15.2547 15.2547C15.4103 15.0992 15.4984 14.8887 15.5 14.6688V1.33125C15.4984 1.11129 15.4103 0.900811 15.2547 0.745275C15.0992 0.589738 14.8887 0.501635 14.6688 0.5V0.5Z" fill="#637381"/>
</svg>
