<?xml version="1.0" encoding="utf-8"?>
<!-- Generator: Adobe Illustrator 24.1.3, SVG Export Plug-In . SVG Version: 6.00 Build 0)  -->
<svg version="1.1" id="Layer_1" xmlns="http://www.w3.org/2000/svg" xmlns:xlink="http://www.w3.org/1999/xlink" x="0px" y="0px"
	 viewBox="0 0 20 22" style="enable-background:new 0 0 20 22;" xml:space="preserve">
<style type="text/css">
	.st0{fill:#FFFFFF;}
</style>
<g>
	<path class="st0" d="M8,21.4c-0.2,0-0.4-0.1-0.6-0.2C7,21,6.8,20.6,6.8,20.1v-8.8L1.3,6.7C0.6,6.2,0.3,5.3,0.3,4.5v-2
		c0-1.2,1-2.3,2.3-2.3h15c1.2,0,2.3,1,2.3,2.3v2c0,0.9-0.4,1.7-1.1,2.3l-5.4,4.6v6.4c0,0.4-0.2,0.9-0.6,1.1l-4,2.4
		C8.4,21.3,8.2,21.4,8,21.4z M2.5,1.8c-0.4,0-0.8,0.3-0.8,0.8v2c0,0.4,0.2,0.9,0.5,1.1l5.5,4.7c0.3,0.2,0.4,0.6,0.4,1v8.4l3.5-2.1
		v-6.3c0-0.4,0.2-0.7,0.4-1l5.5-4.7c0.3-0.3,0.5-0.7,0.5-1.1v-2c0-0.4-0.3-0.8-0.8-0.8H2.5z M11.9,17.5
		C11.9,17.5,11.9,17.5,11.9,17.5L11.9,17.5z"/>
</g>
</svg>
