<?xml version="1.0" encoding="utf-8"?>
<!-- Generator: Adobe Illustrator 24.1.3, SVG Export Plug-In . SVG Version: 6.00 Build 0)  -->
<svg version="1.1" id="Layer_1" xmlns="http://www.w3.org/2000/svg" xmlns:xlink="http://www.w3.org/1999/xlink" x="0px" y="0px"
	 viewBox="0 0 18 23" style="enable-background:new 0 0 18 23;" xml:space="preserve">
<style type="text/css">
	.st0{fill:#637381;}
</style>
<g>
	<path class="st0" d="M9,22.8c-0.4,0-0.8-0.2-1.1-0.4c-0.9-0.9-3.2-3.4-5-6C1.4,14.1,0.3,12,0.3,9c0-4.4,4-8.2,8.6-8.2c0,0,0,0,0,0
		c4.7,0,8.6,3.7,8.6,8.2c0,3-1,5.1-2.6,7.3c-1.8,2.6-4.1,5.1-5,6C9.8,22.7,9.4,22.8,9,22.8z M9,2.4C5.1,2.4,1.8,5.5,1.8,9
		c0,2.6,0.9,4.4,2.3,6.5c1.7,2.5,4,4.9,4.8,5.8c0.8-0.9,3.1-3.3,4.8-5.8c1.4-2.1,2.3-3.9,2.3-6.5C16.2,5.5,12.8,2.4,9,2.4
		C9,2.4,9,2.4,9,2.4z"/>
</g>
<g>
	<path class="st0" d="M9,13.2c-2.1,0-3.7-1.7-3.7-3.8c0-2.1,1.6-3.7,3.7-3.7c2.1,0,3.7,1.6,3.7,3.7C12.7,11.6,11,13.2,9,13.2z
		 M9,7.3c-1.2,0-2.2,0.9-2.2,2.2c0,1.3,1,2.3,2.2,2.3c1.2,0,2.2-1,2.2-2.3C11.2,8.3,10.2,7.3,9,7.3z"/>
</g>
</svg>
