<svg width="18" height="23" viewBox="0 0 18 23" fill="none" xmlns="http://www.w3.org/2000/svg">
<path d="M9.01107 1.625C13.103 1.625 16.9043 4.90179 16.9043 9.03571C16.9043 11.7682 15.9811 13.7001 14.434 15.9524C12.707 18.4667 10.5018 20.8338 9.51601 21.8515C9.23162 22.1451 8.76735 22.1451 8.48296 21.8515C7.4972 20.8338 5.29202 18.4667 3.56496 15.9524C2.01787 13.7001 1.09473 11.7682 1.09473 9.03571C1.09473 4.90179 4.89588 1.625 8.98782 1.625" stroke="#637381" stroke-width="1.5" stroke-linecap="round"/>
<path d="M11.9637 9.4732C11.9637 11.1264 10.6409 12.4937 9.00411 12.4937C7.36733 12.4937 6.03516 11.1264 6.03516 9.4732C6.03516 7.81998 7.36733 6.56627 9.00411 6.56627C10.6409 6.56627 11.9637 7.81998 11.9637 9.4732Z" stroke="#637381" stroke-width="1.5"/>
</svg>
