<svg width="20" height="18" viewBox="0 0 20 18" fill="none" xmlns="http://www.w3.org/2000/svg">
<path fill-rule="evenodd" clip-rule="evenodd" d="M0.231689 1.61738V11.9496C0.231689 12.7757 0.907548 13.4515 1.73359 13.4515H6.92994V15.8377H4.64385C3.9394 15.8377 3.36308 16.2982 3.36308 16.861V17.8844H16.6369V16.861C16.6369 16.2982 16.0606 15.8377 15.3561 15.8377H13.07V13.4515H18.2663C19.0923 13.4515 19.7681 12.7757 19.7681 11.9496V1.61738C19.7681 0.791337 19.0922 0.115479 18.2663 0.115479H1.73359C0.907548 0.115479 0.231689 0.791337 0.231689 1.61738ZM10.828 7.07641C11.1375 7.15553 11.4296 7.27807 11.6976 7.43693L12.7859 6.64897L13.6568 7.5198L12.8688 8.60825C13.0277 8.87619 13.1501 9.16833 13.2293 9.47771L14.5558 9.69001V10.2914H11.8196C11.8118 9.29309 11.0002 8.48606 9.99992 8.48606C8.99974 8.48606 8.18813 9.29309 8.18034 10.2914H5.44414V9.69001L6.77061 9.47762C6.84975 9.16824 6.9722 8.8761 7.13109 8.60825L6.34306 7.5198L7.21397 6.64897L8.30225 7.43693C8.57028 7.27798 8.86234 7.1555 9.1718 7.07641L9.3841 5.75005H10.6157L10.828 7.07641ZM13.7906 5.27606C13.3713 5.27606 13.0314 4.93618 13.0314 4.51689C13.0314 4.09761 13.3713 3.75773 13.7906 3.75773C14.2098 3.75773 14.5497 4.09761 14.5497 4.51689C14.5497 4.93618 14.2098 5.27606 13.7906 5.27606ZM1.48761 10.9216V1.57969C1.48761 1.46515 1.58136 1.3714 1.6959 1.3714H18.3039C18.4185 1.3714 18.5122 1.46515 18.5122 1.57969V10.9216C12.8374 10.9216 7.16249 10.9216 1.48761 10.9216Z" fill="#637381"/>
</svg>
