<svg width="22" height="23" viewBox="0 0 22 23" fill="none" xmlns="http://www.w3.org/2000/svg">
<path d="M17.476 5.48325C17.7303 5.48325 17.9364 5.27713 17.9364 5.02288C17.9364 4.76861 17.7303 4.5625 17.476 4.5625C17.2218 4.5625 17.0156 4.76861 17.0156 5.02288C17.0156 5.27713 17.2218 5.48325 17.476 5.48325Z" fill="#637381"/>
<path d="M18.3969 9.1981C18.6512 9.1981 18.8572 8.99198 18.8572 8.73772C18.8572 8.48346 18.6512 8.27734 18.3969 8.27734C18.1426 8.27734 17.9365 8.48346 17.9365 8.73772C17.9365 8.99198 18.1426 9.1981 18.3969 9.1981Z" fill="#637381"/>
<path d="M11.0304 19.3588C14.3862 19.3588 17.3638 17.1898 18.4401 14.0076C18.5058 13.8139 18.4352 13.5999 18.2674 13.4826C18.1002 13.3662 17.875 13.3733 17.7149 13.5019C16.7227 14.3017 15.5254 14.7243 14.2531 14.7243C11.2066 14.7243 8.69783 12.2462 8.69783 9.19978C8.69783 7.29488 9.69558 5.51708 11.3159 4.49605C11.4894 4.38678 11.5497 4.17504 11.4926 3.97812C11.436 3.7812 11.2354 3.64453 11.0304 3.64453C6.71482 3.64453 3.14258 7.18607 3.14258 11.5017C3.14258 15.8172 6.71482 19.3588 11.0304 19.3588Z" fill="#637381"/>
<path d="M11.9516 7.35546C12.7132 7.35546 13.3327 7.97501 13.3327 8.73661C13.3327 8.99107 13.5387 9.19698 13.7931 9.19698C14.0476 9.19698 14.2535 8.99107 14.2535 8.73661C14.2535 7.97501 14.8731 7.35546 15.6346 7.35546C15.8891 7.35546 16.095 7.14955 16.095 6.89509C16.095 6.64062 15.8891 6.43471 15.6346 6.43471C14.8731 6.43471 14.2535 5.78446 14.2535 5.02288C14.2535 4.76841 14.0476 4.5625 13.7931 4.5625C13.5387 4.5625 13.3327 4.76841 13.3327 5.02288C13.3327 5.78446 12.7132 6.43471 11.9516 6.43471C11.6971 6.43471 11.4912 6.64062 11.4912 6.89509C11.4912 7.14955 11.6971 7.35546 11.9516 7.35546Z" fill="#637381"/>
</svg>
