<?xml version="1.0" encoding="utf-8"?>
<!-- Generator: Adobe Illustrator 24.1.3, SVG Export Plug-In . SVG Version: 6.00 Build 0)  -->
<svg version="1.1" id="Layer_1" xmlns="http://www.w3.org/2000/svg" xmlns:xlink="http://www.w3.org/1999/xlink" x="0px" y="0px"
	 viewBox="0 0 22 23" style="enable-background:new 0 0 22 23;" xml:space="preserve">
<style type="text/css">
	.st0{fill:#637381;}
</style>
<g>
	<path class="st0" d="M10.8,22.6c-0.9,0-1.8-0.3-2.5-0.8c-0.7-0.5-1-1.2-1-2.3c0-0.4,0.3-0.8,0.8-0.8s0.8,0.3,0.8,0.8
		c0,0.5,0.1,0.9,0.3,1c0.9,0.7,2.4,0.7,3.3,0c0.2-0.2,0.3-0.5,0.3-1c0-0.4,0.3-0.8,0.8-0.8s0.8,0.3,0.8,0.8c0,1-0.3,1.8-1,2.3
		C12.6,22.4,11.7,22.6,10.8,22.6z"/>
</g>
<g>
	<path class="st0" d="M4.6,9.9c0-3.4,2.8-6.2,6.2-6.2V2.3c-4.2,0-7.6,3.4-7.6,7.6v2.8c0,0.7-0.2,1.3-0.6,1.9l-0.2,0.3
		c-0.3,0.3-0.6,0.9-0.5,1.7c0.2,1.1,1.2,1.5,2,1.7c0.7,0.1,1.4,0.1,2.1,0.1c0.1,0,0.3,0,0.4,0h4.5V17H6.3c-0.1,0-0.3,0-0.4,0
		c-0.6,0-1.2,0-1.7-0.1c-0.7-0.1-0.9-0.3-0.9-0.6c0,0,0-0.1,0-0.2c0-0.1,0.1-0.2,0.2-0.4l0.2-0.3c0.6-0.8,0.9-1.7,0.9-2.7V9.9z"/>
</g>
<g>
	<path class="st0" d="M17,9.9c0-3.4-2.8-6.2-6.2-6.2V2.3c4.2,0,7.6,3.4,7.6,7.6v2.8c0,0.7,0.2,1.3,0.6,1.9l0.2,0.3
		c0.3,0.3,0.6,0.9,0.5,1.7c-0.2,1.1-1.2,1.5-2,1.7c-0.7,0.1-1.4,0.1-2.1,0.1c-0.1,0-0.3,0-0.4,0h-4.5V17h4.5c0.1,0,0.3,0,0.4,0
		c0.6,0,1.2,0,1.7-0.1c0.7-0.1,0.9-0.3,0.9-0.6c0,0,0-0.1,0-0.2c0-0.1-0.1-0.2-0.2-0.4l-0.2-0.3c-0.6-0.8-0.9-1.7-0.9-2.7V9.9z"/>
</g>
</svg>
