<svg width="22" height="22" viewBox="0 0 22 22" fill="none" xmlns="http://www.w3.org/2000/svg">
<path d="M10.9912 5.1571C9.83511 5.15688 8.70501 5.4995 7.74369 6.1416C6.78237 6.7837 6.03305 7.69646 5.5905 8.76444C5.14795 9.8324 5.03204 11.0077 5.25744 12.1415C5.48283 13.2754 6.0394 14.3169 6.85676 15.1345C7.67413 15.952 8.71557 16.5088 9.84941 16.7343C10.9832 16.96 12.1585 16.8443 13.2265 16.402C14.2946 15.9597 15.2075 15.2105 15.8498 14.2494C16.4921 13.2881 16.835 12.1581 16.835 11.0021C16.8333 9.45253 16.2172 7.96697 15.1216 6.87123C14.0261 5.77547 12.5407 5.15901 10.9912 5.1571Z" fill="#637381"/>
<path d="M20.282 9.9707H18.9081C18.6346 9.9707 18.3723 10.0793 18.1788 10.2727C17.9854 10.4662 17.8767 10.7285 17.8767 11.0021C17.8767 11.2757 17.9854 11.538 18.1788 11.7314C18.3723 11.9249 18.6346 12.0335 18.9081 12.0335H20.282C20.5556 12.0335 20.8179 11.9249 21.0113 11.7314C21.2048 11.538 21.3134 11.2757 21.3134 11.0021C21.3134 10.7285 21.2048 10.4662 21.0113 10.2727C20.8179 10.0793 20.5556 9.9707 20.282 9.9707Z" fill="#637381"/>
<path d="M10.9912 17.8745C10.7179 17.875 10.4558 17.9838 10.2626 18.1771C10.0693 18.3704 9.96072 18.6326 9.96045 18.9059V20.2811C9.96045 20.5545 10.0691 20.8166 10.2623 21.0099C10.4556 21.2032 10.7178 21.3117 10.9911 21.3117C11.2645 21.3117 11.5267 21.2032 11.7199 21.0099C11.9132 20.8166 12.0218 20.5545 12.0218 20.2811V18.9059C12.0216 18.6326 11.9129 18.3705 11.7198 18.1771C11.5266 17.9838 11.2646 17.875 10.9912 17.8745Z" fill="#637381"/>
<path d="M4.12258 11.0021C4.12235 10.7287 4.0137 10.4666 3.82047 10.2733C3.62724 10.0799 3.3652 9.97107 3.09184 9.9707H1.71819C1.44463 9.9707 1.18229 10.0793 0.988868 10.2727C0.795435 10.4662 0.686768 10.7285 0.686768 11.0021C0.686768 11.2757 0.795435 11.538 0.988868 11.7314C1.18229 11.9249 1.44463 12.0335 1.71819 12.0335H3.09185C3.36521 12.0331 3.62725 11.9243 3.82047 11.7309C4.0137 11.5376 4.12235 11.2755 4.12258 11.0021Z" fill="#637381"/>
<path d="M10.9913 4.12548C11.2647 4.12506 11.5266 4.01624 11.7199 3.82289C11.9131 3.62953 12.0218 3.36743 12.022 3.09407V1.71889C12.022 1.44554 11.9135 1.18339 11.7201 0.990105C11.5269 0.79682 11.2647 0.688232 10.9914 0.688232C10.718 0.688232 10.4559 0.79682 10.2626 0.990105C10.0693 1.18339 9.96069 1.44554 9.96069 1.71889V3.09407C9.96088 3.36741 10.0695 3.62951 10.2627 3.82287C10.456 4.01623 10.718 4.12506 10.9913 4.12548Z" fill="#637381"/>
<path d="M17.3119 6.13915L18.2843 5.16677C18.3803 5.07114 18.4565 4.95751 18.5086 4.83238C18.5606 4.70726 18.5875 4.57309 18.5877 4.43757C18.5878 4.30205 18.5612 4.16784 18.5094 4.04261C18.4576 3.91737 18.3816 3.8036 18.2857 3.70777C18.1899 3.61194 18.0762 3.53595 17.9509 3.48415C17.8257 3.43235 17.6914 3.40576 17.556 3.40588C17.4205 3.40602 17.2863 3.43288 17.1612 3.48492C17.036 3.53697 16.9224 3.61318 16.8267 3.70919L15.8544 4.6816C15.7584 4.77724 15.6821 4.89087 15.63 5.016C15.5781 5.14113 15.5512 5.27529 15.551 5.41081C15.5509 5.54633 15.5775 5.68054 15.6293 5.80577C15.6811 5.931 15.7571 6.04478 15.8529 6.1406C15.9488 6.23643 16.0625 6.31241 16.1877 6.36422C16.313 6.41602 16.4473 6.44261 16.5827 6.44247C16.7182 6.44234 16.8524 6.41548 16.9775 6.36344C17.1027 6.31139 17.2163 6.23518 17.3119 6.13915Z" fill="#637381"/>
<path d="M17.3117 15.865C17.2161 15.7691 17.1024 15.6929 16.9773 15.6408C16.8522 15.5888 16.718 15.562 16.5826 15.5619C16.4471 15.5617 16.3129 15.5884 16.1877 15.6402C16.0624 15.692 15.9487 15.768 15.8529 15.8637C15.757 15.9595 15.6811 16.0733 15.6292 16.1985C15.5774 16.3237 15.5508 16.4579 15.551 16.5934C15.5511 16.7289 15.578 16.8631 15.63 16.9882C15.682 17.1133 15.7582 17.2269 15.8542 17.3226L16.8266 18.295C16.9222 18.391 17.0358 18.4672 17.1609 18.5191C17.286 18.5712 17.4202 18.598 17.5557 18.5982C17.6912 18.5983 17.8254 18.5717 17.9506 18.5199C18.0758 18.4681 18.1896 18.3921 18.2854 18.2962C18.3812 18.2004 18.4571 18.0867 18.5089 17.9614C18.5608 17.8362 18.5874 17.702 18.5872 17.5665C18.5871 17.4311 18.5603 17.297 18.5083 17.1718C18.4562 17.0467 18.38 16.933 18.2841 16.8374L17.3117 15.865Z" fill="#637381"/>
<path d="M4.67061 15.8649L3.69823 16.8373C3.60218 16.9329 3.52594 17.0466 3.47387 17.1717C3.4218 17.2968 3.39492 17.4309 3.39478 17.5665C3.39463 17.7021 3.42121 17.8363 3.47301 17.9615C3.52481 18.0868 3.60081 18.2005 3.69664 18.2964C3.79248 18.3922 3.90629 18.4682 4.03153 18.52C4.15677 18.5718 4.29101 18.5984 4.42654 18.5983C4.56208 18.5981 4.69625 18.5712 4.82138 18.5192C4.94652 18.4671 5.06016 18.3908 5.15578 18.2948L6.12818 17.3225C6.22417 17.2268 6.30035 17.1131 6.35237 16.9881C6.40439 16.8629 6.43123 16.7287 6.43134 16.5933C6.43146 16.4578 6.40486 16.3236 6.35306 16.1984C6.30126 16.0731 6.22529 15.9594 6.12947 15.8636C6.03366 15.7677 5.91989 15.6917 5.79467 15.6399C5.66947 15.5881 5.53528 15.5616 5.39977 15.5616C5.26427 15.5618 5.13013 15.5886 5.005 15.6407C4.87989 15.6926 4.76626 15.7688 4.67061 15.8649Z" fill="#637381"/>
<path d="M4.67083 6.13905C4.76652 6.23488 4.88014 6.31093 5.00523 6.36283C5.1303 6.41473 5.26439 6.44148 5.3998 6.44154C5.53523 6.44159 5.66934 6.41496 5.79447 6.36316C5.91959 6.31137 6.03328 6.23542 6.12904 6.13966C6.2248 6.04391 6.30074 5.93021 6.35254 5.80509C6.40433 5.67996 6.43097 5.54585 6.43091 5.41043C6.43085 5.27501 6.4041 5.14092 6.3522 5.01585C6.3003 4.89077 6.22425 4.77714 6.12842 4.68146L5.15602 3.70906C5.06041 3.61291 4.94677 3.53658 4.82161 3.48443C4.69645 3.43229 4.56222 3.40534 4.42663 3.40515C4.29104 3.40497 4.15674 3.43153 4.03144 3.48333C3.90613 3.53514 3.79228 3.61115 3.6964 3.70703C3.60053 3.80291 3.52451 3.91676 3.47271 4.04207C3.4209 4.16738 3.39434 4.30167 3.39453 4.43726C3.39472 4.57286 3.42167 4.70708 3.47381 4.83224C3.52596 4.9574 3.6023 5.07104 3.69844 5.16665L4.67083 6.13905Z" fill="#637381"/>
</svg>
