<svg width="14" height="12" viewBox="0 0 14 12" fill="none" xmlns="http://www.w3.org/2000/svg">
<path d="M4.45 11.5875C5.50571 11.5942 6.55224 11.3911 7.52887 10.9902C8.50551 10.5893 9.39282 9.99839 10.1393 9.25187C10.8858 8.50536 11.4767 7.61805 11.8777 6.64141C12.2786 5.66478 12.4816 4.61825 12.475 3.56254C12.475 3.43754 12.475 3.31879 12.475 3.19379C13.0222 2.79285 13.4959 2.30015 13.875 1.73754C13.3597 1.96291 12.8144 2.11238 12.2563 2.18129C12.8481 1.82865 13.2921 1.27358 13.5063 0.618791C12.9547 0.949692 12.3499 1.18231 11.7188 1.30629C11.2937 0.853395 10.7313 0.553201 10.1184 0.452157C9.50558 0.351114 8.87653 0.454853 8.32859 0.747325C7.78065 1.0398 7.34437 1.5047 7.08725 2.07009C6.83014 2.63548 6.76652 3.26985 6.90625 3.87504C5.78502 3.82001 4.68794 3.52943 3.68647 3.02223C2.685 2.51504 1.80159 1.80259 1.09375 0.931291C0.736827 1.55078 0.628642 2.28274 0.7911 2.97899C0.953558 3.67524 1.37452 4.28374 1.96875 4.68129C1.53038 4.66438 1.10216 4.54448 0.71875 4.33129V4.36254C0.714855 5.00994 0.932951 5.63911 1.33669 6.14521C1.74043 6.6513 2.30542 7.00375 2.9375 7.14379C2.52977 7.25345 2.10268 7.27054 1.6875 7.19379C1.87049 7.74591 2.2198 8.2279 2.68753 8.57366C3.15526 8.91942 3.71849 9.11202 4.3 9.12504C3.30576 9.92537 2.07006 10.3659 0.79375 10.375C0.569971 10.3686 0.346717 10.3498 0.125 10.3188C1.41685 11.1419 2.91825 11.5758 4.45 11.5688" fill="#637381"/>
</svg>
